<?xml version="1.0" encoding="utf-8"?>
<!-- Generator: Adobe Illustrator 25.4.1, SVG Export Plug-In . SVG Version: 6.00 Build 0)  -->
<svg version="1.1" id="Bold" xmlns="http://www.w3.org/2000/svg" xmlns:xlink="http://www.w3.org/1999/xlink" x="0px" y="0px"
	 viewBox="0 0 512 512" style="enable-background:new 0 0 512 512;" xml:space="preserve">
<style type="text/css">
	.st0{fill:#2B316B;}
</style>
<path class="st0" d="M170.7,149.3H480c17.7,0,32-14.3,32-32s-14.3-32-32-32H170.7c-17.7,0-32,14.3-32,32S153,149.3,170.7,149.3z"/>
<path class="st0" d="M480,234.7H170.7c-17.7,0-32,14.3-32,32s14.3,32,32,32H480c17.7,0,32-14.3,32-32S497.7,234.7,480,234.7z"/>
<path class="st0" d="M480,384H170.7c-17.7,0-32,14.3-32,32s14.3,32,32,32H480c17.7,0,32-14.3,32-32S497.7,384,480,384z"/>
<circle class="st0" cx="53.3" cy="117.3" r="53.3"/>
<circle class="st0" cx="53.3" cy="256" r="53.3"/>
<circle class="st0" cx="53.3" cy="405.3" r="53.3"/>
</svg>
