<svg id="Capa_1" data-name="Capa 1" xmlns="http://www.w3.org/2000/svg" viewBox="0 0 518.05 115.75"><defs><style>.cls-1{fill:#80cff5;}.cls-2{fill:#2b316b;}.cls-3{fill:#fefeff;}</style></defs><path class="cls-1" d="M25.25,49.6C23,31.87,41.27,12.13,61,13.28c10.65.61,19.65,3.41,26.63,11.28,3.62,4.09,5.84,3.56,9.18-.19,10.44-11.68,24-13.6,38-9.31,25.1,7.72,33.18,40.4,14.91,59.29-16.91,17.48-34.28,34.5-51.49,51.68-3.54,3.53-8.41,3.59-11.9.12-17.57-17.53-35.2-35-52.55-52.73A29,29,0,0,1,25.25,49.6Zm14,.88c.35,4.06,1.46,8.7,4.86,12.47C58.59,79,74.54,93.67,89.61,109.18c2,2,3.34,1.2,5-.44C109.26,94,124.1,79.41,138.65,64.54A21.37,21.37,0,0,0,139,34.8a21.77,21.77,0,0,0-29.72-1.95c-4,3.24-7.55,7-11.29,10.55-4.36,4.11-7.82,4.19-12.16.08-3.38-3.2-6.59-6.59-9.94-9.82-6.54-6.31-15.1-7.82-23.51-4.21C44.68,32.77,39.18,41.21,39.25,50.48Z" transform="translate(-25.07 -12.97)"/><path class="cls-2" d="M179.63,71.09c0-11.15,0-22.3,0-33.44,0-5.86,2.48-8.06,8.76-8s8.74,2.35,8.76,8.12c0,7.15.19,14.32-.07,21.46-.12,3.22,1,3.93,4,3.8,4.82-.23,9.66-.25,14.48,0,3.4.17,4.67-.81,4.53-4.41-.28-7.14-.11-14.31-.07-21.46,0-5.34,2.59-7.51,8.71-7.51s8.92,2.19,9,7.44c.1,15.48,0,31,0,46.43,0,7.15.07,14.31,0,21.47-.09,6.17-2,7.63-9.57,7.54-6.53-.08-8.1-1.56-8.12-7.77,0-8-.15-16,.07-24,.09-3.33-1-4.4-4.28-4.17-6.08.44-12.22-.57-18.29.53-.11,5.82-.23,11.63-.3,17.44-.05,3.82.09,7.65,0,11.48-.16,4.88-2.5,6.49-9.09,6.46s-8.34-1.36-8.38-6.5C179.56,94.39,179.63,82.74,179.63,71.09Z" transform="translate(-25.07 -12.97)"/><path class="cls-2" d="M543.11,71.5c0,11.48,0,23,0,34.46,0,5.09-1.66,6.48-7.58,6.58-7,.11-9.5-1.45-9.57-6.4-.12-8.33-.18-16.66,0-25,.08-3.32-.6-4.82-4.31-4.58a138.8,138.8,0,0,1-15,0c-2.83-.12-3.71.75-3.65,3.62.18,8.32.09,16.65.06,25,0,5.74-1.92,7.32-8.63,7.35-7,0-9.2-1.58-9.21-7.45q-.11-33.7,0-67.42c0-5.66,2.75-8,9-8s8.83,2.33,8.85,8c0,7.33.1,14.65,0,22-.05,2.5.54,3.55,3.27,3.44,5.32-.2,10.66-.19,16,0,2.86.1,3.72-.91,3.65-3.74-.17-7.32-.1-14.64-.06-22,0-5.41,2.55-7.6,8.63-7.68s8.58,2,8.59,7.4C543.13,48.52,543.11,60,543.11,71.5Z" transform="translate(-25.07 -12.97)"/><path class="cls-2" d="M338.73,29.45c8.4,0,10.25,1.38,12.77,9.57q9.57,31.13,19.13,62.28c1.84,6,.2,9.16-5.61,10.9-6.25,1.88-9.55.21-11.23-5.67-3.14-11-3.14-11.08-14.85-11-4,0-9-1.21-11.61.73s-2.69,7.1-3.82,10.87c-1.61,5.36-5,6.9-11.17,5-5.75-1.74-7.42-4.79-5.68-10.47q9.57-31.4,19.16-62.79C328.22,31,330.38,29.44,338.73,29.45Zm8.15,52.16c-2.74-10-5.33-19.57-8.21-30.11-2.68,9.69-5,18.28-7.46,26.83-.76,2.66-.06,3.47,2.69,3.34C338,81.47,342.14,81.61,346.88,81.61Z" transform="translate(-25.07 -12.97)"/><path class="cls-2" d="M250,71.5c0-11.32.19-22.64-.09-33.95-.13-5.16,2.28-7.68,6.89-7.76q20.48-.36,41-.06c4.8.07,5.7,3.87,5.68,7.83,0,5.26-2,7.69-6.93,7.79-8.15.16-16.32.21-24.47,0-3.49-.11-4.68.87-4.4,4.4a108.8,108.8,0,0,1,0,12c-.07,2.15.67,2.91,2.85,2.84,4.32-.13,8.65-.09,13,0s6.8,2.47,6.61,6.84c-.16,3.93-1.76,6.73-6.31,6.69-4.16-.05-8.34.15-12.49-.05-2.89-.14-3.76,1-3.64,3.73.18,4.15.19,8.33,0,12.48-.13,2.66.82,3.37,3.39,3.33,8.32-.15,16.65-.09,25,0,5.35,0,7.37,2.16,7.42,7.65s-1.67,7.4-7.24,7.41q-19,0-38,0c-7,0-8.22-1.26-8.24-8.07C250,93.47,250,82.49,250,71.5Z" transform="translate(-25.07 -12.97)"/><path class="cls-2" d="M439.56,77.31c0-9.32-.09-18.65.05-28,0-2.79-.79-3.88-3.68-3.71a108.88,108.88,0,0,1-11,0c-4.23-.16-6.7-3.35-6.62-8.25s2.3-7.68,6.62-7.71q23.49-.15,47,0c4.39,0,6.3,2.66,6.33,7.8,0,5.36-2,8-6.54,8.15a68.3,68.3,0,0,1-9.49,0c-3.84-.36-5.1.79-5,4.87.25,17.81.09,35.63.12,53.45,0,3.22.28,6.7-3.63,7.85-4.18,1.24-8.52,1.72-12.43-1-1.88-1.32-1.66-3.48-1.66-5.47Q439.55,91.29,439.56,77.31Z" transform="translate(-25.07 -12.97)"/><path class="cls-2" d="M378.24,71.07c0-11,0-21.94,0-32.92,0-6.09,2.63-8.5,9-8.5s8.86,2.34,8.86,8.43c0,18.45.08,36.9-.07,55.36,0,3.22.78,4.24,4.08,4.11,6.81-.26,13.64-.14,20.46,0,4.75.06,6.66,2.45,6.6,7.89s-1.66,7.13-6.55,7.14q-17.46.06-34.92,0c-5.57,0-7.42-1.91-7.45-7.54C378.2,93.68,378.24,82.38,378.24,71.07Z" transform="translate(-25.07 -12.97)"/><path class="cls-3" d="M39.25,50.48c-.07-9.27,5.43-17.71,13.14-21,8.41-3.61,17-2.1,23.51,4.21,3.35,3.23,6.56,6.62,9.94,9.82,4.34,4.11,7.8,4,12.16-.08,3.74-3.54,7.3-7.31,11.29-10.55A21.77,21.77,0,0,1,139,34.8a21.37,21.37,0,0,1-.36,29.74C124.1,79.41,109.26,94,94.58,108.74c-1.63,1.64-3,2.47-5,.44C74.54,93.67,58.59,79,44.11,63,40.71,59.18,39.6,54.54,39.25,50.48Zm89-.93a5.92,5.92,0,0,0-1.83-5.29c-3.06-2.94-7.71-2.65-11.54,1.1-6.65,6.5-13.24,13.07-19.69,19.77-2.17,2.26-3.72,2.81-5.94.13A45.16,45.16,0,0,0,82.85,59c-3.93-3.2-7.74-3-10.63.09s-2.76,7.08.66,10.65c4.48,4.67,9.06,9.27,13.75,13.74,3.79,3.61,7.47,3.51,11.3-.28,9.34-9.23,18.57-18.56,27.89-27.8C127.44,53.77,128.57,52.06,128.24,49.55Z" transform="translate(-25.07 -12.97)"/><path class="cls-3" d="M346.88,81.61c-4.74,0-8.87-.14-13,.06-2.75.13-3.45-.68-2.69-3.34,2.46-8.55,4.78-17.14,7.46-26.83C341.55,62,344.14,71.57,346.88,81.61Z" transform="translate(-25.07 -12.97)"/><path class="cls-1" d="M128.24,49.55c.33,2.51-.8,4.22-2.42,5.83C116.5,64.62,107.27,74,97.93,83.18c-3.83,3.79-7.51,3.89-11.3.28C81.94,79,77.36,74.39,72.88,69.72c-3.42-3.57-3.56-7.51-.66-10.65s6.7-3.29,10.63-.09a45.16,45.16,0,0,1,6.39,6.28c2.22,2.68,3.77,2.13,5.94-.13,6.45-6.7,13-13.27,19.69-19.77,3.83-3.75,8.48-4,11.54-1.1A5.92,5.92,0,0,1,128.24,49.55Z" transform="translate(-25.07 -12.97)"/></svg>